<svg width="593" height="593" viewBox="0 0 593 593" fill="none" xmlns="http://www.w3.org/2000/svg">
<path d="M593 296.5C593 460.252 460.252 593 296.5 593C132.748 593 0 460.252 0 296.5C0 132.748 132.748 0 296.5 0C460.252 0 593 132.748 593 296.5Z" fill="#F7F5F3"/>
<path d="M268.827 120C333.341 157.232 194.434 197.399 238.897 240.343C200.414 242.349 164.195 242.349 138.54 260.473C162.688 276.517 235.124 284.543 283.417 284.593C305.183 284.593 336.281 281.557 364.787 277.071C392.53 272.706 418.359 267.756 429.807 262.403C413.711 242.346 340.646 239.839 316.493 239.839C330.088 213.248 357.786 181.623 309.074 168.135C344.486 189.857 291.35 215.242 283.293 239.336C278.462 239.345 273.636 239.398 268.83 239.462C267.169 197.61 358.545 146.49 268.83 120.001L268.827 120ZM136.275 267.792C138.358 301.3 153.562 356.96 172.243 386.752C156.147 392.813 132 404.803 132 420.851C132 460.965 200.806 473 280.901 473C361.387 473 429.801 460.965 429.801 420.851C429.801 404.807 409.68 392.772 393.584 388.759L397.609 376.724C425.779 380.736 462 354.66 462 326.581C462 306.524 449.926 292.482 421.757 292.482L430.307 269.666C416.308 275.559 392.43 280.806 366.042 284.961C337.196 289.5 305.919 292.609 283.414 292.609C235.123 292.555 178.019 287.466 136.274 267.789L136.275 267.792ZM156.144 294.492C168.013 299.092 184.314 300.508 184.314 300.508C188.339 328.587 192.362 352.657 200.409 376.725C180.288 376.725 168.214 352.7 156.14 294.491L156.144 294.492ZM420.241 312.669C448.411 316.681 449.921 340.622 405.652 356.67L420.241 312.669ZM186.829 412.954C259.268 441.033 299.511 441.033 371.949 412.954C371.949 461.09 186.829 461.09 186.829 412.954Z" fill="#532700"/>
</svg>
